<?xml version="1.0" encoding="iso-8859-1"?>
<!-- Uploaded to: SVG Repo, www.svgrepo.com, Generator: SVG Repo Mixer Tools -->
<!DOCTYPE svg PUBLIC "-//W3C//DTD SVG 1.1//EN" "http://www.w3.org/Graphics/SVG/1.1/DTD/svg11.dtd">
<svg fill="#000000" height="800px" width="800px" version="1.1" id="Capa_1" xmlns="http://www.w3.org/2000/svg" xmlns:xlink="http://www.w3.org/1999/xlink" 
	 viewBox="0 0 190 190" xml:space="preserve">
<path d="M184.874,0H5.126C2.295,0,0,2.295,0,5.126v179.748C0,187.705,2.295,190,5.126,190h179.748c2.831,0,5.126-2.295,5.126-5.126
	V5.126C190,2.295,187.705,0,184.874,0z M156.506,117.092c-0.267,19.144-12.36,34.353-30.787,38.668
	c-2.663,0.625-5.468,0.872-8.211,0.89c-15.074,0.084-30.152,0.174-45.224,0.006c-18.632-0.205-33.748-12.398-37.967-30.52
	c-0.699-3.001-0.85-6.18-0.903-9.28c-0.125-7.312-0.04-14.63-0.04-21.942c0.017,0,0.033,0,0.05,0c0-8.03-0.153-16.062,0.03-24.084
	c0.456-19.926,17.344-36.871,37.247-37.334l28.362,0.019c8.6,0.403,15.726,4.812,22.2,10.204
	c7.604,6.333,11.439,14.598,12.309,24.373c0.18,2.036,0.544,4.066,1.011,6.058c0.884,3.801,2.314,5.169,6.151,5.609
	c2.918,0.338,5.875,0.308,8.807,0.525c5.244,0.389,7.132,2.425,7.113,7.638C156.625,97.644,156.642,107.366,156.506,117.092z
	 M67.214,72.518c0-4.022,3.26-7.283,7.282-7.283h22.482c4.024,0,7.284,3.261,7.284,7.283c0,4.022-3.261,7.283-7.284,7.283H74.496
	C70.474,79.801,67.214,76.54,67.214,72.518z M122.787,117.326c0,4.022-3.261,7.283-7.283,7.283H74.496
	c-4.022,0-7.282-3.261-7.282-7.283c0-4.021,3.26-7.283,7.282-7.283h41.008C119.526,110.043,122.787,113.305,122.787,117.326z"/>
</svg>